<svg width="995" height="156" viewBox="0 0 995 156" fill="none" xmlns="http://www.w3.org/2000/svg">
<path d="M20.5547 147.375C20.1641 147.635 19.7734 147.896 19.3828 148.156C18.9922 148.417 18.6016 148.677 18.2109 148.938C16.7786 149.719 15.4766 150.174 14.3047 150.305C13.1328 150.305 11.8307 150.956 10.3984 152.258C9.8776 151.607 9.48698 151.281 9.22656 151.281C8.96615 151.281 8.51042 151.281 7.85938 151.281C6.16667 151.281 5.1901 150.826 4.92969 149.914C4.40885 150.044 3.5625 150.37 2.39062 150.891C1.34896 151.411 0.567708 151.802 0.046875 152.062C1.21875 150.37 2 149.068 2.39062 148.156C2.78125 147.245 2.97656 146.398 2.97656 145.617C3.10677 144.836 3.17188 144.055 3.17188 143.273C3.30208 142.362 3.6276 141.125 4.14844 139.562C4.40885 139.042 4.60417 138.521 4.73438 138C4.86458 137.479 5.0599 136.893 5.32031 136.242C5.97135 134.289 6.49219 132.076 6.88281 129.602C7.40365 127.128 8.1849 124.979 9.22656 123.156C9.22656 120.943 9.68229 118.859 10.5938 116.906C11.6354 114.953 12.4818 112.935 13.1328 110.852C13.3932 110.07 13.7188 109.289 14.1094 108.508C14.6302 107.727 15.0208 106.945 15.2812 106.164C15.8021 104.862 16.1927 103.625 16.4531 102.453C16.8438 101.151 17.2344 99.9141 17.625 98.7422C18.6667 94.9661 19.7083 91.2552 20.75 87.6094C21.7917 83.8333 22.7682 80.0573 23.6797 76.2812C23.8099 75.6302 23.9401 74.9141 24.0703 74.1328C24.3307 73.3516 24.5911 72.6354 24.8516 71.9844C25.5026 70.0312 25.8932 68.0781 26.0234 66.125C26.2839 64.0417 26.9349 62.0885 27.9766 60.2656C27.8464 59.3542 27.8464 58.5078 27.9766 57.7266C28.237 56.9453 28.4974 56.099 28.7578 55.1875C29.0182 54.276 29.2786 53.4297 29.5391 52.6484C29.7995 51.8672 29.9948 51.2812 30.125 50.8906C30.776 49.1979 31.2318 47.7005 31.4922 46.3984C31.8828 44.9661 32.599 43.4688 33.6406 41.9062C33.6406 41.9062 33.8359 41.2552 34.2266 39.9531C34.6172 38.5208 35.0729 36.9583 35.5938 35.2656C36.1146 33.5729 36.5703 32.0104 36.9609 30.5781C37.3516 29.0156 37.5469 28.1042 37.5469 27.8438C37.8073 26.8021 38.0026 25.8255 38.1328 24.9141C38.3932 24.0026 38.6536 23.026 38.9141 21.9844C39.1745 21.3333 39.4349 20.8125 39.6953 20.4219C39.9557 19.901 40.2161 19.3151 40.4766 18.6641C40.8672 17.2318 41.2578 15.474 41.6484 13.3906C42.0391 11.3073 42.5599 9.67969 43.2109 8.50781C43.6016 7.59635 44.3177 6.88021 45.3594 6.35938C46.5312 5.70833 47.5078 5.05729 48.2891 4.40625C50.6328 4.66667 52.3255 4.53646 53.3672 4.01562C54.5391 3.49479 55.6458 2.84375 56.6875 2.0625C57.3385 2.19271 57.9245 2.38802 58.4453 2.64844C59.0964 2.77865 59.7474 2.84375 60.3984 2.84375C62.8724 5.57812 64.5651 8.3776 65.4766 11.2422C66.5182 14.1068 67.4948 16.9714 68.4062 19.8359C68.7969 21.2682 69.1875 22.7005 69.5781 24.1328C69.9688 25.4349 70.4245 26.737 70.9453 28.0391C71.0755 28.4297 71.2708 28.8854 71.5312 29.4062C71.7917 29.7969 72.0521 30.2526 72.3125 30.7734C72.9635 31.8151 73.4844 32.9219 73.875 34.0938C74.3958 35.2656 74.8516 36.4375 75.2422 37.6094C76.0234 38.5208 76.6094 39.6276 77 40.9297C77.3906 42.1016 77.7161 43.3385 77.9766 44.6406C78.3672 45.8125 78.7578 46.9844 79.1484 48.1562C79.5391 49.1979 80.125 50.1094 80.9062 50.8906C81.1667 52.3229 81.6224 53.7552 82.2734 55.1875C82.9245 56.4896 83.3802 57.9219 83.6406 59.4844C84.4219 60.526 85.3333 62.5443 86.375 65.5391C87.4167 68.4036 88.4583 71.5286 89.5 74.9141C90.5417 78.2995 91.5182 81.5547 92.4297 84.6797C93.3411 87.8047 93.9922 90.0182 94.3828 91.3203C94.6432 92.362 95.1641 93.7292 95.9453 95.4219C96.7266 96.9844 97.4427 98.4167 98.0938 99.7188C98.6146 101.151 99.1354 102.648 99.6562 104.211C100.307 105.773 100.828 107.271 101.219 108.703C101.479 110.135 101.74 111.503 102 112.805C102.391 114.107 102.781 115.474 103.172 116.906C103.432 117.818 103.823 118.664 104.344 119.445C104.865 120.096 105.255 120.943 105.516 121.984C106.036 123.026 106.362 124.003 106.492 124.914C106.753 125.826 107.208 126.802 107.859 127.844C107.729 129.276 107.794 130.188 108.055 130.578C108.315 130.969 108.576 131.424 108.836 131.945C109.357 134.68 109.943 136.893 110.594 138.586C111.245 140.148 111.57 141.841 111.57 143.664C111.57 145.227 111.245 146.203 110.594 146.594C110.073 146.984 109.357 147.635 108.445 148.547C107.404 149.458 106.492 150.174 105.711 150.695C105.06 151.216 104.018 151.477 102.586 151.477C101.023 151.346 100.047 151.542 99.6562 152.062C99.3958 152.714 99.2005 153.169 99.0703 153.43C97.5078 153.299 96.4661 153.234 95.9453 153.234C95.5547 153.365 95.099 153.43 94.5781 153.43C94.1875 153.43 93.7318 153.495 93.2109 153.625C92.8203 153.885 92.3646 154.341 91.8438 154.992C90.9323 153.951 90.0208 152.974 89.1094 152.062C88.3281 151.281 87.612 150.37 86.9609 149.328C86.9609 147.115 86.6354 144.51 85.9844 141.516C85.4635 138.521 84.8776 136.177 84.2266 134.484C82.9245 131.099 81.6875 127.779 80.5156 124.523C79.474 121.268 78.4323 117.948 77.3906 114.562C77 113.13 76.5443 111.828 76.0234 110.656C75.6328 109.484 75.1771 108.247 74.6562 106.945C74.9167 107.987 74.9818 109.094 74.8516 110.266C74.8516 111.307 74.526 112.349 73.875 113.391C73.6146 113.651 73.224 113.977 72.7031 114.367C72.1823 114.758 71.9219 115.083 71.9219 115.344C70.3594 116.646 68.9922 117.883 67.8203 119.055C67.9505 121.398 67.625 123.026 66.8438 123.938C66.0625 124.849 65.2161 125.695 64.3047 126.477C62.0911 126.607 60.724 126.477 60.2031 126.086C59.6823 125.695 58.9661 125.435 58.0547 125.305C57.5339 125.174 57.013 125.174 56.4922 125.305C55.9714 125.305 55.4505 125.305 54.9297 125.305C53.888 125.305 52.9115 125.044 52 124.523C51.6094 124.263 51.2839 124.003 51.0234 123.742C50.8932 123.482 50.6979 123.221 50.4375 122.961C49.3958 121.919 48.1589 121.073 46.7266 120.422C45.4245 119.641 44.1224 118.99 42.8203 118.469C41.7786 117.557 40.6719 116.646 39.5 115.734C38.4583 114.693 37.3516 113.846 36.1797 113.195C35.138 115.669 34.2917 117.883 33.6406 119.836C33.1198 121.659 32.4688 123.482 31.6875 125.305C30.2552 129.732 29.0833 133.638 28.1719 137.023C27.2604 140.279 26.2188 143.599 25.0469 146.984C24.526 147.115 24.0052 147.31 23.4844 147.57C23.0938 147.831 22.5729 147.961 21.9219 147.961L20.5547 147.375ZM39.6953 105.773C40.737 103.951 41.6484 102.974 42.4297 102.844C43.3411 102.583 44.1224 102.062 44.7734 101.281C45.0339 101.021 45.2943 100.695 45.5547 100.305C45.9453 99.9141 46.3359 99.5234 46.7266 99.1328C47.1172 98.8724 47.5729 98.612 48.0938 98.3516C48.6146 98.0911 49.0703 97.7656 49.4609 97.375C50.5026 96.4635 51.349 95.6823 52 95.0312C52.7812 94.3802 53.888 94.0547 55.3203 94.0547C57.5339 94.0547 59.3568 94.6406 60.7891 95.8125C62.2214 96.8542 63.9792 97.5703 66.0625 97.9609C66.3229 98.7422 67.1693 99.3281 68.6016 99.7188C70.0339 99.9792 71.1406 100.37 71.9219 100.891C70.6198 97.6354 69.5781 94.3802 68.7969 91.125C68.1458 87.7396 67.2995 84.4193 66.2578 81.1641C65.4766 78.2995 64.5651 75.5 63.5234 72.7656C62.4818 69.901 61.4401 67.1667 60.3984 64.5625C59.487 61.9583 58.7057 59.4193 58.0547 56.9453C57.4036 54.4714 56.5573 52.0625 55.5156 49.7188C54.474 52.0625 53.4323 54.9271 52.3906 58.3125C51.349 61.6979 50.5677 64.6927 50.0469 67.2969C50.0469 68.4688 49.9818 69.3802 49.8516 70.0312C49.5911 70.9427 49.3307 71.7891 49.0703 72.5703C48.8099 73.2214 48.5495 73.9375 48.2891 74.7188C46.5964 79.7969 45.0339 84.9401 43.6016 90.1484C42.2995 95.3568 40.737 100.565 38.9141 105.773H39.6953ZM202.195 10.8516C201.935 11.3724 201.805 11.8932 201.805 12.4141C201.935 12.9349 202 13.5208 202 14.1719C201.74 15.7344 201.74 16.5156 202 16.5156C202.26 16.5156 202.391 16.6458 202.391 16.9062L201.023 18.8594C201.023 19.6406 200.828 20.3568 200.438 21.0078C200.177 21.6589 200.112 22.4401 200.242 23.3516C199.852 24.0026 199.461 24.6536 199.07 25.3047C198.81 25.9557 198.354 26.6068 197.703 27.2578H195.164C193.732 27.2578 192.169 27.388 190.477 27.6484C188.914 27.7786 187.352 27.8438 185.789 27.8438C185.529 27.8438 185.203 27.8438 184.812 27.8438C184.422 27.7135 184.031 27.6484 183.641 27.6484C183.38 27.6484 183.055 27.7135 182.664 27.8438C182.273 27.8438 181.818 27.8438 181.297 27.8438C179.344 27.8438 177.391 27.7786 175.438 27.6484C173.615 27.388 171.661 27.2578 169.578 27.2578C169.057 27.2578 168.536 27.2578 168.016 27.2578C167.495 27.2578 166.909 27.3229 166.258 27.4531C166.128 29.6667 165.997 31.9453 165.867 34.2891C165.867 36.5026 165.867 38.7812 165.867 41.125C165.867 41.776 165.802 42.4922 165.672 43.2734C165.542 43.9245 165.477 44.5755 165.477 45.2266C165.346 46.9193 165.216 48.5469 165.086 50.1094C165.086 51.6719 165.086 53.2995 165.086 54.9922C165.086 58.638 165.086 62.2839 165.086 65.9297C165.216 69.5755 165.346 73.2865 165.477 77.0625C165.607 79.0156 165.737 80.9036 165.867 82.7266C165.997 84.5495 166.062 86.4375 166.062 88.3906C166.062 92.8177 165.997 97.2448 165.867 101.672C165.737 105.969 165.672 110.331 165.672 114.758C165.672 116.19 165.607 117.557 165.477 118.859C165.346 120.031 165.281 121.333 165.281 122.766C165.281 125.76 165.346 128.755 165.477 131.75C165.607 134.745 165.672 137.74 165.672 140.734C165.672 142.167 165.607 143.599 165.477 145.031C165.477 146.464 165.477 147.896 165.477 149.328C164.826 150.37 164.37 151.281 164.109 152.062C163.849 152.844 163.068 153.234 161.766 153.234C160.854 152.974 160.398 152.648 160.398 152.258C160.529 151.997 160.464 151.737 160.203 151.477C159.031 151.346 158.12 151.411 157.469 151.672C156.948 152.062 156.297 152.388 155.516 152.648C155.125 152.518 154.669 152.453 154.148 152.453C153.758 152.453 153.367 152.453 152.977 152.453C152.716 152.453 152.456 152.518 152.195 152.648C151.935 152.909 151.349 153.039 150.438 153.039C149.656 153.169 149.201 153.039 149.07 152.648C148.94 152.258 148.549 152.062 147.898 152.062C147.247 152.453 146.466 152.714 145.555 152.844C144.773 153.104 143.992 153.234 143.211 153.234C142.43 152.714 142.039 152.193 142.039 151.672C142.169 151.281 142.104 150.826 141.844 150.305C141.714 150.044 141.453 149.719 141.062 149.328C140.802 148.807 140.542 148.417 140.281 148.156C140.542 146.333 140.737 144.706 140.867 143.273C140.997 141.841 141.062 140.279 141.062 138.586C141.062 135.201 140.932 131.88 140.672 128.625C140.411 125.37 140.281 122.049 140.281 118.664C140.281 117.622 140.411 116.516 140.672 115.344C140.932 114.172 141.062 112.935 141.062 111.633C140.802 110.591 140.737 110.005 140.867 109.875C140.997 109.615 141.062 109.354 141.062 109.094C141.062 108.312 140.997 107.531 140.867 106.75C140.867 105.969 140.867 105.188 140.867 104.406C140.867 102.844 140.867 101.281 140.867 99.7188C140.997 98.1562 141.062 96.5938 141.062 95.0312C141.062 94.3802 140.997 93.7292 140.867 93.0781C140.867 92.2969 140.867 91.5807 140.867 90.9297C140.737 89.7578 140.672 88.5208 140.672 87.2188C140.802 85.9167 140.867 84.6146 140.867 83.3125C140.867 77.0625 140.737 70.8776 140.477 64.7578C140.346 58.638 140.281 52.4531 140.281 46.2031C140.281 43.2083 140.411 40.1484 140.672 37.0234C141.062 33.8984 141.258 30.7734 141.258 27.6484C141.258 27.2578 141.128 26.737 140.867 26.0859C140.607 25.4349 140.346 24.9792 140.086 24.7188C139.435 24.7188 138.784 24.7188 138.133 24.7188C137.612 24.5885 137.026 24.5234 136.375 24.5234C134.943 24.5234 133.576 24.7188 132.273 25.1094C129.799 25.2396 127.391 25.4349 125.047 25.6953C122.833 25.8255 120.555 25.9557 118.211 26.0859C116.648 25.9557 115.672 25.9557 115.281 26.0859C115.021 26.0859 114.695 26.0859 114.305 26.0859C113.263 26.0859 112.482 25.8255 111.961 25.3047V22.7656C111.18 21.2031 110.854 20.3568 110.984 20.2266C111.115 20.0964 111.18 19.901 111.18 19.6406C111.18 19.25 110.854 18.8594 110.203 18.4688C109.422 17.9479 109.031 17.1667 109.031 16.125C108.901 15.0833 108.641 14.3021 108.25 13.7812C107.859 13.2604 107.664 12.7396 107.664 12.2188C107.664 11.3073 107.859 10.2656 108.25 9.09375C109.422 8.44271 110.529 7.98698 111.57 7.72656C112.742 7.46615 114.044 7.14062 115.477 6.75C116.258 6.48958 116.974 6.22917 117.625 5.96875C118.276 5.70833 118.992 5.51302 119.773 5.38281C120.685 5.2526 121.596 5.1875 122.508 5.1875C123.419 5.1875 124.331 5.1224 125.242 4.99219C127.195 4.60156 129.214 4.27604 131.297 4.01562C133.51 3.75521 135.594 3.625 137.547 3.625C139.37 3.625 141.193 3.88542 143.016 4.40625C144.839 4.79688 146.466 4.99219 147.898 4.99219C149.982 4.99219 151.935 5.1224 153.758 5.38281C155.711 5.64323 157.729 5.77344 159.812 5.77344C160.073 5.77344 160.464 5.90365 160.984 6.16406C161.635 6.29427 162.352 6.35938 163.133 6.35938H182.078C183.12 6.61979 183.836 6.6849 184.227 6.55469C184.747 6.42448 185.203 6.35938 185.594 6.35938C186.635 6.35938 187.612 6.42448 188.523 6.55469C189.435 6.6849 190.411 6.75 191.453 6.75C192.365 6.75 193.081 6.6849 193.602 6.55469C194.643 6.6849 195.62 7.01042 196.531 7.53125C197.443 7.92188 198.484 8.11719 199.656 8.11719C200.177 8.50781 200.568 9.02865 200.828 9.67969C201.089 10.2005 201.544 10.5911 202.195 10.8516ZM285.789 117.102C286.701 118.273 287.221 119.25 287.352 120.031C287.612 120.682 287.872 121.398 288.133 122.18C288.393 122.831 288.589 123.482 288.719 124.133C288.979 124.784 289.109 125.174 289.109 125.305C289.109 126.216 288.914 126.997 288.523 127.648C288.263 128.169 287.807 128.885 287.156 129.797C281.948 131.75 276.805 133.703 271.727 135.656C266.648 137.479 261.44 139.302 256.102 141.125C254.669 141.516 253.367 141.971 252.195 142.492C251.023 142.883 249.721 143.208 248.289 143.469C248.029 143.729 247.573 143.99 246.922 144.25C246.401 144.38 245.75 144.576 244.969 144.836C244.188 145.096 243.406 145.357 242.625 145.617C241.974 145.747 241.518 145.812 241.258 145.812C240.216 146.073 239.044 146.203 237.742 146.203C236.57 146.073 235.398 146.073 234.227 146.203C233.576 146.333 233.12 146.659 232.859 147.18C232.599 147.701 232.273 148.286 231.883 148.938C231.622 149.458 231.167 149.979 230.516 150.5C229.865 150.891 228.953 151.086 227.781 151.086C226.609 151.086 225.438 151.021 224.266 150.891C223.094 150.76 221.857 150.435 220.555 149.914C220.294 149.523 220.164 149.068 220.164 148.547C220.294 147.896 220.229 147.375 219.969 146.984C218.797 146.854 217.885 146.984 217.234 147.375C216.583 147.635 215.932 147.831 215.281 147.961C214.891 147.44 214.565 146.854 214.305 146.203C214.174 145.422 213.849 144.771 213.328 144.25C213.198 143.599 213.133 142.948 213.133 142.297C213.133 141.646 213.133 140.995 213.133 140.344C213.133 139.432 213.133 138.391 213.133 137.219C213.263 135.917 213.523 134.94 213.914 134.289C214.305 126.867 214.5 119.445 214.5 112.023C214.5 104.471 214.5 96.9844 214.5 89.5625C214.5 88.9115 214.5 88 214.5 86.8281C214.5 85.526 214.435 84.224 214.305 82.9219C214.305 81.6198 214.24 80.4479 214.109 79.4062C214.109 78.2344 214.044 77.388 213.914 76.8672C214.044 75.9557 214.109 75.1094 214.109 74.3281C214.109 73.4167 214.109 72.5052 214.109 71.5938C214.109 70.8125 214.109 70.0964 214.109 69.4453C214.109 68.7943 213.979 68.1432 213.719 67.4922C213.849 66.9714 213.914 66.2552 213.914 65.3438C213.914 64.6927 213.849 64.0417 213.719 63.3906C213.589 62.7396 213.523 62.0885 213.523 61.4375C213.523 60.3958 213.523 59.4193 213.523 58.5078C213.654 57.4661 213.719 56.4245 213.719 55.3828C213.719 51.9974 213.523 48.6771 213.133 45.4219C212.872 42.0365 212.742 38.651 212.742 35.2656C212.742 30.8385 212.677 26.4115 212.547 21.9844C212.547 17.5573 212.482 13.1302 212.352 8.70312C212.872 7.40104 213.133 6.29427 213.133 5.38281C214.956 4.47135 216.388 4.14583 217.43 4.40625C218.471 4.66667 219.513 4.79688 220.555 4.79688C221.206 4.79688 221.792 4.73177 222.312 4.60156C222.833 4.47135 223.354 4.27604 223.875 4.01562C224.526 4.14583 225.047 4.34115 225.438 4.60156C225.958 4.73177 226.544 4.79688 227.195 4.79688C229.148 4.40625 230.19 4.34115 230.32 4.60156C230.581 4.86198 230.906 5.1224 231.297 5.38281C231.818 5.2526 232.208 5.05729 232.469 4.79688C232.859 4.40625 233.315 4.21094 233.836 4.21094C234.617 4.21094 235.203 4.73177 235.594 5.77344C235.984 6.6849 236.44 7.46615 236.961 8.11719C236.961 9.54948 237.221 10.8516 237.742 12.0234C238.003 17.362 238.068 22.6354 237.938 27.8438C237.938 33.0521 238.133 38.2604 238.523 43.4688C238.654 45.8125 238.784 48.2865 238.914 50.8906C239.174 53.3646 239.305 55.7734 239.305 58.1172C239.305 62.0234 239.305 65.9948 239.305 70.0312C239.435 73.9375 239.5 77.9089 239.5 81.9453C239.5 82.5964 239.5 83.1823 239.5 83.7031C239.63 84.224 239.695 84.8099 239.695 85.4609C239.695 87.0234 239.63 88.5208 239.5 89.9531C239.37 91.3854 239.305 92.8177 239.305 94.25V109.484C239.305 110.786 239.24 112.154 239.109 113.586C239.109 114.888 239.174 116.19 239.305 117.492L240.086 119.836C241.518 119.315 242.951 118.794 244.383 118.273C245.945 117.622 247.573 117.167 249.266 116.906C250.307 116.646 251.284 116.385 252.195 116.125C253.107 115.865 254.083 115.604 255.125 115.344C256.948 114.302 258.38 113.586 259.422 113.195C260.464 112.805 261.505 112.414 262.547 112.023C264.76 111.242 266.909 110.461 268.992 109.68C271.076 108.768 273.224 107.922 275.438 107.141C276.479 107.401 277.326 107.271 277.977 106.75C279.279 107.01 280.451 107.141 281.492 107.141C282.924 108.573 283.771 109.68 284.031 110.461C284.422 111.242 284.943 111.958 285.594 112.609C285.333 113.26 285.333 113.651 285.594 113.781C285.984 113.911 286.245 114.237 286.375 114.758C286.896 115.018 286.961 115.409 286.57 115.93C286.18 116.32 285.919 116.711 285.789 117.102ZM306.688 147.375C306.297 147.635 305.906 147.896 305.516 148.156C305.125 148.417 304.734 148.677 304.344 148.938C302.911 149.719 301.609 150.174 300.438 150.305C299.266 150.305 297.964 150.956 296.531 152.258C296.01 151.607 295.62 151.281 295.359 151.281C295.099 151.281 294.643 151.281 293.992 151.281C292.299 151.281 291.323 150.826 291.062 149.914C290.542 150.044 289.695 150.37 288.523 150.891C287.482 151.411 286.701 151.802 286.18 152.062C287.352 150.37 288.133 149.068 288.523 148.156C288.914 147.245 289.109 146.398 289.109 145.617C289.24 144.836 289.305 144.055 289.305 143.273C289.435 142.362 289.76 141.125 290.281 139.562C290.542 139.042 290.737 138.521 290.867 138C290.997 137.479 291.193 136.893 291.453 136.242C292.104 134.289 292.625 132.076 293.016 129.602C293.536 127.128 294.318 124.979 295.359 123.156C295.359 120.943 295.815 118.859 296.727 116.906C297.768 114.953 298.615 112.935 299.266 110.852C299.526 110.07 299.852 109.289 300.242 108.508C300.763 107.727 301.154 106.945 301.414 106.164C301.935 104.862 302.326 103.625 302.586 102.453C302.977 101.151 303.367 99.9141 303.758 98.7422C304.799 94.9661 305.841 91.2552 306.883 87.6094C307.924 83.8333 308.901 80.0573 309.812 76.2812C309.943 75.6302 310.073 74.9141 310.203 74.1328C310.464 73.3516 310.724 72.6354 310.984 71.9844C311.635 70.0312 312.026 68.0781 312.156 66.125C312.417 64.0417 313.068 62.0885 314.109 60.2656C313.979 59.3542 313.979 58.5078 314.109 57.7266C314.37 56.9453 314.63 56.099 314.891 55.1875C315.151 54.276 315.411 53.4297 315.672 52.6484C315.932 51.8672 316.128 51.2812 316.258 50.8906C316.909 49.1979 317.365 47.7005 317.625 46.3984C318.016 44.9661 318.732 43.4688 319.773 41.9062C319.773 41.9062 319.969 41.2552 320.359 39.9531C320.75 38.5208 321.206 36.9583 321.727 35.2656C322.247 33.5729 322.703 32.0104 323.094 30.5781C323.484 29.0156 323.68 28.1042 323.68 27.8438C323.94 26.8021 324.135 25.8255 324.266 24.9141C324.526 24.0026 324.786 23.026 325.047 21.9844C325.307 21.3333 325.568 20.8125 325.828 20.4219C326.089 19.901 326.349 19.3151 326.609 18.6641C327 17.2318 327.391 15.474 327.781 13.3906C328.172 11.3073 328.693 9.67969 329.344 8.50781C329.734 7.59635 330.451 6.88021 331.492 6.35938C332.664 5.70833 333.641 5.05729 334.422 4.40625C336.766 4.66667 338.458 4.53646 339.5 4.01562C340.672 3.49479 341.779 2.84375 342.82 2.0625C343.471 2.19271 344.057 2.38802 344.578 2.64844C345.229 2.77865 345.88 2.84375 346.531 2.84375C349.005 5.57812 350.698 8.3776 351.609 11.2422C352.651 14.1068 353.628 16.9714 354.539 19.8359C354.93 21.2682 355.32 22.7005 355.711 24.1328C356.102 25.4349 356.557 26.737 357.078 28.0391C357.208 28.4297 357.404 28.8854 357.664 29.4062C357.924 29.7969 358.185 30.2526 358.445 30.7734C359.096 31.8151 359.617 32.9219 360.008 34.0938C360.529 35.2656 360.984 36.4375 361.375 37.6094C362.156 38.5208 362.742 39.6276 363.133 40.9297C363.523 42.1016 363.849 43.3385 364.109 44.6406C364.5 45.8125 364.891 46.9844 365.281 48.1562C365.672 49.1979 366.258 50.1094 367.039 50.8906C367.299 52.3229 367.755 53.7552 368.406 55.1875C369.057 56.4896 369.513 57.9219 369.773 59.4844C370.555 60.526 371.466 62.5443 372.508 65.5391C373.549 68.4036 374.591 71.5286 375.633 74.9141C376.674 78.2995 377.651 81.5547 378.562 84.6797C379.474 87.8047 380.125 90.0182 380.516 91.3203C380.776 92.362 381.297 93.7292 382.078 95.4219C382.859 96.9844 383.576 98.4167 384.227 99.7188C384.747 101.151 385.268 102.648 385.789 104.211C386.44 105.773 386.961 107.271 387.352 108.703C387.612 110.135 387.872 111.503 388.133 112.805C388.523 114.107 388.914 115.474 389.305 116.906C389.565 117.818 389.956 118.664 390.477 119.445C390.997 120.096 391.388 120.943 391.648 121.984C392.169 123.026 392.495 124.003 392.625 124.914C392.885 125.826 393.341 126.802 393.992 127.844C393.862 129.276 393.927 130.188 394.188 130.578C394.448 130.969 394.708 131.424 394.969 131.945C395.49 134.68 396.076 136.893 396.727 138.586C397.378 140.148 397.703 141.841 397.703 143.664C397.703 145.227 397.378 146.203 396.727 146.594C396.206 146.984 395.49 147.635 394.578 148.547C393.536 149.458 392.625 150.174 391.844 150.695C391.193 151.216 390.151 151.477 388.719 151.477C387.156 151.346 386.18 151.542 385.789 152.062C385.529 152.714 385.333 153.169 385.203 153.43C383.641 153.299 382.599 153.234 382.078 153.234C381.688 153.365 381.232 153.43 380.711 153.43C380.32 153.43 379.865 153.495 379.344 153.625C378.953 153.885 378.497 154.341 377.977 154.992C377.065 153.951 376.154 152.974 375.242 152.062C374.461 151.281 373.745 150.37 373.094 149.328C373.094 147.115 372.768 144.51 372.117 141.516C371.596 138.521 371.01 136.177 370.359 134.484C369.057 131.099 367.82 127.779 366.648 124.523C365.607 121.268 364.565 117.948 363.523 114.562C363.133 113.13 362.677 111.828 362.156 110.656C361.766 109.484 361.31 108.247 360.789 106.945C361.049 107.987 361.115 109.094 360.984 110.266C360.984 111.307 360.659 112.349 360.008 113.391C359.747 113.651 359.357 113.977 358.836 114.367C358.315 114.758 358.055 115.083 358.055 115.344C356.492 116.646 355.125 117.883 353.953 119.055C354.083 121.398 353.758 123.026 352.977 123.938C352.195 124.849 351.349 125.695 350.438 126.477C348.224 126.607 346.857 126.477 346.336 126.086C345.815 125.695 345.099 125.435 344.188 125.305C343.667 125.174 343.146 125.174 342.625 125.305C342.104 125.305 341.583 125.305 341.062 125.305C340.021 125.305 339.044 125.044 338.133 124.523C337.742 124.263 337.417 124.003 337.156 123.742C337.026 123.482 336.831 123.221 336.57 122.961C335.529 121.919 334.292 121.073 332.859 120.422C331.557 119.641 330.255 118.99 328.953 118.469C327.911 117.557 326.805 116.646 325.633 115.734C324.591 114.693 323.484 113.846 322.312 113.195C321.271 115.669 320.424 117.883 319.773 119.836C319.253 121.659 318.602 123.482 317.82 125.305C316.388 129.732 315.216 133.638 314.305 137.023C313.393 140.279 312.352 143.599 311.18 146.984C310.659 147.115 310.138 147.31 309.617 147.57C309.227 147.831 308.706 147.961 308.055 147.961L306.688 147.375ZM325.828 105.773C326.87 103.951 327.781 102.974 328.562 102.844C329.474 102.583 330.255 102.062 330.906 101.281C331.167 101.021 331.427 100.695 331.688 100.305C332.078 99.9141 332.469 99.5234 332.859 99.1328C333.25 98.8724 333.706 98.612 334.227 98.3516C334.747 98.0911 335.203 97.7656 335.594 97.375C336.635 96.4635 337.482 95.6823 338.133 95.0312C338.914 94.3802 340.021 94.0547 341.453 94.0547C343.667 94.0547 345.49 94.6406 346.922 95.8125C348.354 96.8542 350.112 97.5703 352.195 97.9609C352.456 98.7422 353.302 99.3281 354.734 99.7188C356.167 99.9792 357.273 100.37 358.055 100.891C356.753 97.6354 355.711 94.3802 354.93 91.125C354.279 87.7396 353.432 84.4193 352.391 81.1641C351.609 78.2995 350.698 75.5 349.656 72.7656C348.615 69.901 347.573 67.1667 346.531 64.5625C345.62 61.9583 344.839 59.4193 344.188 56.9453C343.536 54.4714 342.69 52.0625 341.648 49.7188C340.607 52.0625 339.565 54.9271 338.523 58.3125C337.482 61.6979 336.701 64.6927 336.18 67.2969C336.18 68.4688 336.115 69.3802 335.984 70.0312C335.724 70.9427 335.464 71.7891 335.203 72.5703C334.943 73.2214 334.682 73.9375 334.422 74.7188C332.729 79.7969 331.167 84.9401 329.734 90.1484C328.432 95.3568 326.87 100.565 325.047 105.773H325.828ZM450.242 5.1875C451.154 6.88021 451.609 8.83333 451.609 11.0469C451.609 13 451.219 15.0833 450.438 17.2969C449.656 19.5104 448.419 21.2031 446.727 22.375C445.555 24.9792 444.383 27.1276 443.211 28.8203C442.169 30.3828 441.128 31.9453 440.086 33.5078C439.695 34.4193 439.305 35.3307 438.914 36.2422C438.523 37.0234 438.003 37.8698 437.352 38.7812C436.961 39.4323 436.115 40.7344 434.812 42.6875C433.51 44.6406 432.143 46.724 430.711 48.9375C429.409 51.0208 428.237 53.0391 427.195 54.9922C426.154 56.9453 425.633 58.1823 425.633 58.7031C425.633 59.224 426.219 59.875 427.391 60.6562C428.693 61.4375 429.539 62.0234 429.93 62.4141C430.581 63.0651 431.167 63.7161 431.688 64.3672C432.339 65.0182 432.99 65.6693 433.641 66.3203C435.073 67.4922 436.44 68.6641 437.742 69.8359C439.174 71.0078 440.607 72.3099 442.039 73.7422C444.773 76.2161 447.638 78.5599 450.633 80.7734C453.628 82.987 456.297 85.5911 458.641 88.5859C460.854 89.237 462.286 90.7995 462.938 93.2734C463.589 95.7474 463.784 98.0911 463.523 100.305C463.784 100.695 463.979 101.086 464.109 101.477C464.37 101.867 464.63 102.323 464.891 102.844C464.891 104.927 464.565 106.49 463.914 107.531C463.393 108.443 462.807 109.615 462.156 111.047C461.505 112.349 461.049 113.651 460.789 114.953C460.659 116.255 460.268 117.427 459.617 118.469C459.357 118.859 458.966 119.185 458.445 119.445C458.055 119.706 457.729 120.096 457.469 120.617C456.948 121.529 456.492 122.635 456.102 123.938C455.841 125.109 455.451 126.216 454.93 127.258C454.539 128.299 454.018 129.341 453.367 130.383C452.846 131.424 452.391 132.466 452 133.508C451.74 134.159 451.479 134.94 451.219 135.852C451.089 136.763 450.503 137.414 449.461 137.805C448.81 140.148 447.898 142.427 446.727 144.641C445.685 146.854 444.839 149.133 444.188 151.477C443.016 151.867 441.518 152.583 439.695 153.625C438.003 154.797 436.635 155.383 435.594 155.383C435.203 155.383 434.878 155.188 434.617 154.797C434.357 154.406 433.966 154.081 433.445 153.82C433.185 153.69 432.794 153.69 432.273 153.82C431.883 153.951 431.557 154.016 431.297 154.016C430.646 154.016 430.125 153.755 429.734 153.234C429.474 152.714 429.083 152.323 428.562 152.062C428.172 152.193 427.781 152.323 427.391 152.453C427 152.583 426.609 152.648 426.219 152.648C425.307 152.648 424.786 152.388 424.656 151.867C424.526 151.477 424.135 151.086 423.484 150.695C421.922 149.914 421.01 149.198 420.75 148.547C420.49 147.896 420.099 147.44 419.578 147.18C420.49 143.794 421.727 140.604 423.289 137.609C424.852 134.484 426.349 131.359 427.781 128.234C428.172 127.193 428.628 126.216 429.148 125.305C429.799 124.393 430.385 123.417 430.906 122.375C431.297 121.464 431.883 120.292 432.664 118.859C433.445 117.427 434.161 115.93 434.812 114.367C435.464 112.805 436.049 111.372 436.57 110.07C437.091 108.638 437.352 107.466 437.352 106.555C437.352 104.732 436.831 103.365 435.789 102.453C432.013 99.3281 428.432 96.138 425.047 92.8828C421.792 89.6276 418.341 86.3073 414.695 82.9219C412.352 80.8385 409.812 78.6901 407.078 76.4766C406.557 76.0859 406.167 75.5 405.906 74.7188C405.646 73.9375 405.255 73.2214 404.734 72.5703C404.474 72.0495 404.083 71.6589 403.562 71.3984C403.042 71.138 402.651 70.7474 402.391 70.2266C402 69.7057 401.74 69.1198 401.609 68.4688C401.479 67.6875 401.089 67.1016 400.438 66.7109C399.786 66.0599 399.005 65.6693 398.094 65.5391C397.182 65.4089 396.401 65.0182 395.75 64.3672C396.141 63.9766 396.336 63.5859 396.336 63.1953C396.206 62.6745 396.141 62.2188 396.141 61.8281C396.141 60.9167 396.531 60.2656 397.312 59.875C398.094 59.4844 398.484 58.7682 398.484 57.7266C399.005 56.6849 399.396 56.0339 399.656 55.7734C401.089 52.2578 402.716 48.8724 404.539 45.6172C406.362 42.362 408.25 39.1068 410.203 35.8516C410.854 34.8099 411.44 33.8333 411.961 32.9219C412.612 31.8802 413.263 30.8385 413.914 29.7969C414.305 28.8854 414.63 28.1042 414.891 27.4531C415.281 26.6719 415.802 25.9557 416.453 25.3047C418.276 23.2214 419.773 21.2682 420.945 19.4453C422.247 17.6224 423.224 15.4089 423.875 12.8047C424.005 12.1536 424.266 11.2422 424.656 10.0703C425.047 8.89844 425.503 7.72656 426.023 6.55469C426.674 5.38281 427.326 4.34115 427.977 3.42969C428.628 2.51823 429.344 2.0625 430.125 2.0625C430.776 2.0625 431.688 2.32292 432.859 2.84375C434.161 3.36458 435.268 3.75521 436.18 4.01562C436.961 4.27604 437.742 4.53646 438.523 4.79688C439.435 4.92708 440.281 4.99219 441.062 4.99219C441.583 4.99219 442.104 4.86198 442.625 4.60156C443.146 4.21094 443.732 4.01562 444.383 4.01562C445.424 4.01562 446.401 4.21094 447.312 4.60156C448.224 4.86198 449.201 5.05729 450.242 5.1875ZM549.461 152.844C548.94 152.323 548.68 151.607 548.68 150.695C548.68 150.044 548.68 149.523 548.68 149.133C548.81 148.612 548.94 148.026 549.07 147.375C549.721 144.38 550.047 141.385 550.047 138.391C550.047 135.266 550.177 132.206 550.438 129.211C550.568 127.388 550.633 125.565 550.633 123.742C550.763 121.919 550.828 120.096 550.828 118.273C550.828 107.466 550.503 96.724 549.852 86.0469C549.201 75.2396 548.875 64.3672 548.875 53.4297C548.875 45.8776 549.005 38.3255 549.266 30.7734C549.526 23.0911 549.721 15.4089 549.852 7.72656C551.023 7.07552 552.456 6.8151 554.148 6.94531C555.841 7.07552 557.208 6.48958 558.25 5.1875C558.901 5.05729 559.552 5.05729 560.203 5.1875C560.854 5.1875 561.505 5.1875 562.156 5.1875C563.589 5.1875 564.956 4.73177 566.258 3.82031C567.56 2.90885 568.992 2.1276 570.555 1.47656C571.336 1.73698 571.857 1.86719 572.117 1.86719C572.508 1.73698 572.898 1.67188 573.289 1.67188C573.68 1.67188 574.526 2.1276 575.828 3.03906C577.13 3.95052 578.562 4.99219 580.125 6.16406C581.688 7.33594 583.12 8.44271 584.422 9.48438C585.854 10.526 586.766 11.1771 587.156 11.4375C590.411 13.9115 593.276 16.6458 595.75 19.6406C598.354 22.5052 600.893 25.4349 603.367 28.4297C605.711 31.4245 608.25 34.4844 610.984 37.6094C613.719 40.6042 616.388 43.4036 618.992 46.0078C619.904 47.0495 620.815 47.9609 621.727 48.7422C622.768 49.5234 623.745 50.4349 624.656 51.4766C625.047 51.9974 625.372 52.5833 625.633 53.2344C626.023 53.7552 626.414 54.3411 626.805 54.9922C627.586 55.9036 628.497 56.6849 629.539 57.3359C630.581 57.987 631.557 58.7682 632.469 59.6797C633.12 60.2005 634.096 61.2422 635.398 62.8047C636.701 64.3672 637.352 65.5391 637.352 66.3203C637.352 66.8411 637.221 67.2969 636.961 67.6875C636.701 68.0781 636.44 68.5339 636.18 69.0547C636.049 69.4453 635.984 70.0312 635.984 70.8125C635.984 71.5938 635.919 72.1146 635.789 72.375C634.487 73.4167 633.771 74.0677 633.641 74.3281C633.51 74.5885 633.315 74.849 633.055 75.1094C632.664 75.6302 632.143 76.0859 631.492 76.4766C630.971 76.737 630.581 77.1927 630.32 77.8438C630.06 78.2344 629.93 78.625 629.93 79.0156C630.06 79.4062 629.995 79.862 629.734 80.3828C629.083 81.8151 628.042 83.1823 626.609 84.4844C625.177 85.7865 623.94 87.2188 622.898 88.7812C621.466 91.125 620.034 93.4688 618.602 95.8125C617.169 98.1562 615.542 100.435 613.719 102.648C612.938 103.69 612.091 104.732 611.18 105.773C610.398 106.685 609.617 107.661 608.836 108.703C608.185 109.484 607.599 110.331 607.078 111.242C606.557 112.023 605.971 112.935 605.32 113.977C603.888 115.799 602.521 117.622 601.219 119.445C599.917 121.138 598.549 122.896 597.117 124.719C595.555 126.932 593.862 129.146 592.039 131.359C590.216 133.443 588.589 135.591 587.156 137.805C585.724 140.148 584.227 142.297 582.664 144.25C581.102 146.203 579.409 148.091 577.586 149.914C577.065 150.305 576.414 150.891 575.633 151.672C574.852 152.453 574.07 152.844 573.289 152.844C572.768 152.844 572.312 152.648 571.922 152.258C571.661 151.867 571.206 151.672 570.555 151.672C570.424 151.672 570.034 151.737 569.383 151.867C568.732 151.997 567.951 152.128 567.039 152.258L563.523 152.648C561.44 153.69 559.943 154.146 559.031 154.016C558.12 154.016 557.208 154.081 556.297 154.211C555.776 154.341 555.32 154.536 554.93 154.797C554.669 155.057 554.344 155.188 553.953 155.188C553.042 155.188 552.326 154.732 551.805 153.82C551.284 153.039 550.503 152.714 549.461 152.844ZM608.055 68.4688C608.055 67.8177 607.404 66.9062 606.102 65.7344C604.93 64.5625 604.018 63.7161 603.367 63.1953C602.456 62.4141 601.349 61.6979 600.047 61.0469C598.875 60.2656 597.898 59.4193 597.117 58.5078C596.466 57.7266 595.815 56.9453 595.164 56.1641C594.643 55.2526 594.057 54.4062 593.406 53.625C591.062 51.0208 588.654 48.4167 586.18 45.8125C583.836 43.2083 581.753 40.3438 579.93 37.2188C578.758 36.4375 577.651 35.526 576.609 34.4844C575.568 33.4427 574.331 32.5964 572.898 31.9453C572.638 32.7266 572.508 33.5729 572.508 34.4844C572.638 35.2656 572.703 36.0469 572.703 36.8281C572.703 39.8229 572.573 42.7526 572.312 45.6172C572.052 48.4818 571.922 51.3464 571.922 54.2109C571.922 61.2422 572.052 68.2083 572.312 75.1094C572.703 81.8802 572.898 88.7161 572.898 95.6172C572.898 98.2214 572.898 100.826 572.898 103.43C573.029 106.034 573.289 108.638 573.68 111.242C573.419 112.023 573.289 112.74 573.289 113.391C573.289 114.042 573.419 114.888 573.68 115.93C574.721 115.279 575.568 114.497 576.219 113.586C577 112.544 577.716 111.568 578.367 110.656C580.581 107.792 582.729 104.927 584.812 102.062C587.026 99.0677 589.24 96.0729 591.453 93.0781C592.885 91.125 594.318 89.237 595.75 87.4141C597.312 85.4609 598.81 83.4427 600.242 81.3594C600.633 80.8385 601.219 79.9271 602 78.625C602.911 77.3229 603.758 76.0208 604.539 74.7188C605.451 73.2865 606.232 71.9844 606.883 70.8125C607.664 69.6406 608.055 68.8594 608.055 68.4688ZM707.859 128.039C707.599 128.82 707.469 129.536 707.469 130.188C707.469 130.969 707.534 131.75 707.664 132.531C707.924 133.312 708.055 134.094 708.055 134.875C707.794 137.219 707.599 138.651 707.469 139.172C706.688 139.823 705.06 140.604 702.586 141.516C700.242 142.297 697.378 143.143 693.992 144.055C690.737 144.836 687.156 145.682 683.25 146.594C679.474 147.375 675.828 148.156 672.312 148.938C668.797 149.719 665.542 150.37 662.547 150.891C659.682 151.542 657.534 151.997 656.102 152.258C655.451 152.388 654.799 152.518 654.148 152.648C653.628 152.909 653.042 153.169 652.391 153.43C651.74 153.56 651.089 153.56 650.438 153.43C649.786 153.43 649.135 153.56 648.484 153.82C648.094 153.82 647.703 153.625 647.312 153.234C647.052 152.844 646.792 152.518 646.531 152.258C646.531 151.477 646.401 150.891 646.141 150.5C645.88 150.109 645.555 149.784 645.164 149.523C644.904 149.263 644.643 149.003 644.383 148.742C644.122 148.352 643.992 147.766 643.992 146.984C643.732 145.943 643.341 145.161 642.82 144.641C642.43 143.99 642.234 143.404 642.234 142.883C641.714 141.19 641.453 139.693 641.453 138.391C641.453 137.74 641.518 137.219 641.648 136.828C641.779 136.438 641.974 136.047 642.234 135.656C643.016 135.396 643.602 135.07 643.992 134.68C644.383 134.289 644.904 133.964 645.555 133.703C646.336 133.312 647.443 132.987 648.875 132.727C650.307 132.336 651.87 131.945 653.562 131.555C655.255 131.164 656.883 130.773 658.445 130.383C660.008 129.992 661.31 129.602 662.352 129.211C662.742 129.081 663.133 129.016 663.523 129.016C663.914 129.016 664.24 128.885 664.5 128.625C664.24 126.542 664.044 124.458 663.914 122.375C663.914 120.292 663.784 118.273 663.523 116.32C663.523 115.409 663.458 114.497 663.328 113.586C663.198 112.674 663.133 111.828 663.133 111.047L663.328 106.945C663.328 101.997 663.133 97.0495 662.742 92.1016C662.352 87.1536 662.156 82.2057 662.156 77.2578V70.6172C662.156 69.5755 662.091 68.599 661.961 67.6875C661.961 66.776 661.961 65.7995 661.961 64.7578C661.961 62.2839 661.961 59.9401 661.961 57.7266C662.091 55.3828 662.156 52.974 662.156 50.5V32.5312C659.292 31.8802 656.622 31.9453 654.148 32.7266C651.674 33.3776 649.135 33.8333 646.531 34.0938C645.62 33.1823 645.099 32.2057 644.969 31.1641C643.927 29.7318 643.211 28.8203 642.82 28.4297C642.43 28.0391 641.974 26.9323 641.453 25.1094C640.542 23.2865 639.76 22.1797 639.109 21.7891C638.589 21.2682 638.328 20.487 638.328 19.4453C638.328 18.7943 638.458 18.3385 638.719 18.0781C639.109 17.8177 639.435 17.362 639.695 16.7109C640.867 16.1901 641.518 15.8646 641.648 15.7344C641.909 15.474 642.169 15.2786 642.43 15.1484C643.732 14.237 645.229 13.5859 646.922 13.1953C648.615 12.8047 650.242 12.349 651.805 11.8281C653.107 11.4375 654.344 10.9818 655.516 10.4609C656.688 9.9401 657.99 9.48438 659.422 9.09375C661.115 8.57292 662.807 8.05208 664.5 7.53125C666.193 7.01042 667.82 6.55469 669.383 6.16406C670.424 5.90365 671.401 5.83854 672.312 5.96875C673.354 5.96875 674.396 5.64323 675.438 4.99219C677.13 5.2526 678.888 5.2526 680.711 4.99219C682.664 4.60156 684.747 4.14583 686.961 3.625C689.174 3.10417 691.323 2.64844 693.406 2.25781C695.49 1.86719 697.052 1.54167 698.094 1.28125C698.745 1.54167 699.201 1.86719 699.461 2.25781C699.721 2.64844 700.112 2.90885 700.633 3.03906C700.763 3.42969 700.893 3.95052 701.023 4.60156C701.154 5.1224 701.414 5.51302 701.805 5.77344C701.805 7.20573 702.13 8.2474 702.781 8.89844C702.651 10.2005 702.846 11.6979 703.367 13.3906C704.018 14.9531 704.344 16.4505 704.344 17.8828C703.693 19.8359 702.586 21.0729 701.023 21.5938C699.591 22.1146 697.964 22.5703 696.141 22.9609C694.448 23.3516 692.755 23.7422 691.062 24.1328C689.37 24.3932 688.003 24.7188 686.961 25.1094C686.961 26.9323 686.961 28.8203 686.961 30.7734C687.091 32.7266 687.156 34.6797 687.156 36.6328C687.156 38.4557 687.091 40.2786 686.961 42.1016C686.961 43.9245 686.961 45.7474 686.961 47.5703C686.961 50.3047 686.896 53.1042 686.766 55.9688C686.766 58.8333 686.766 61.6979 686.766 64.5625C686.766 68.599 686.831 72.6354 686.961 76.6719C687.091 80.7083 687.286 84.7448 687.547 88.7812C687.677 89.4323 687.742 90.4089 687.742 91.7109C687.742 96.9193 687.807 102.062 687.938 107.141C688.198 112.089 688.589 117.232 689.109 122.57C690.802 122.701 692.104 122.44 693.016 121.789C693.667 121.789 694.253 121.659 694.773 121.398C695.424 121.138 696.01 120.878 696.531 120.617C697.312 120.487 698.354 120.292 699.656 120.031C701.089 119.641 702 119.445 702.391 119.445C703.562 119.576 704.279 119.576 704.539 119.445C704.93 120.227 705.516 120.812 706.297 121.203C706.557 122.375 706.753 123.547 706.883 124.719C707.143 125.76 707.469 126.867 707.859 128.039ZM794.578 0.304688C795.62 0.304688 796.336 0.565104 796.727 1.08594C797.247 1.47656 797.638 1.9974 797.898 2.64844C799.201 2.51823 800.503 2.77865 801.805 3.42969C803.237 3.95052 804.083 4.47135 804.344 4.99219C805.385 5.1224 806.036 5.38281 806.297 5.77344C806.557 6.16406 806.948 6.42448 807.469 6.55469L809.617 6.35938C810.138 6.88021 811.115 7.40104 812.547 7.92188C814.109 8.44271 815.021 9.02865 815.281 9.67969C815.021 10.3307 814.891 11.0469 814.891 11.8281C815.021 12.4792 815.086 13.2604 815.086 14.1719C814.695 16.125 814.044 17.8828 813.133 19.4453C812.352 21.0078 811.635 22.5052 810.984 23.9375C810.594 24.5885 810.268 25.3047 810.008 26.0859C809.878 26.8672 809.682 27.5833 809.422 28.2344C809.161 28.7552 808.901 29.276 808.641 29.7969C808.51 30.1875 808.315 30.6432 808.055 31.1641C808.055 31.8151 807.924 32.5312 807.664 33.3125C807.404 33.9635 807.143 34.6146 806.883 35.2656C806.883 36.0469 806.818 36.6328 806.688 37.0234C806.557 37.2839 806.492 37.5443 806.492 37.8047C804.018 43.7943 802.065 49.3932 800.633 54.6016C799.201 59.8099 797.768 65.0182 796.336 70.2266C795.685 71.7891 795.034 73.7422 794.383 76.0859C793.732 78.4297 792.885 81.2292 791.844 84.4844C790.932 87.6094 789.891 90.9948 788.719 94.6406C787.677 98.1562 786.635 101.477 785.594 104.602C784.682 107.596 783.836 110.201 783.055 112.414C782.404 114.497 782.013 115.669 781.883 115.93C781.492 118.143 780.906 120.422 780.125 122.766C779.344 124.979 778.693 127.323 778.172 129.797C777.521 130.578 777.13 131.49 777 132.531C776.87 133.443 776.544 134.354 776.023 135.266C774.982 135.135 774.135 135.396 773.484 136.047C773.354 137.089 773.419 138.065 773.68 138.977C774.07 139.888 774.266 140.865 774.266 141.906C773.745 143.339 773.094 144.25 772.312 144.641C771.531 145.031 771.01 145.682 770.75 146.594C769.839 146.333 769.122 146.464 768.602 146.984C768.211 147.505 767.755 147.766 767.234 147.766C765.672 147.375 764.76 147.635 764.5 148.547C763.719 148.286 763.198 148.417 762.938 148.938C762.677 149.328 762.417 149.589 762.156 149.719C761.115 149.719 760.268 149.979 759.617 150.5C759.096 150.891 758.445 151.151 757.664 151.281C757.143 151.021 756.622 150.76 756.102 150.5C755.581 150.109 755.125 149.719 754.734 149.328C753.953 147.115 753.237 144.966 752.586 142.883C751.935 140.669 751.284 138.456 750.633 136.242C750.372 135.201 750.047 134.224 749.656 133.312C749.266 132.401 748.94 131.424 748.68 130.383C748.549 129.732 748.484 129.211 748.484 128.82C748.484 128.299 748.419 127.779 748.289 127.258C748.029 126.607 747.768 125.956 747.508 125.305C747.247 124.654 746.987 124.003 746.727 123.352C745.685 120.487 744.904 117.557 744.383 114.562C743.732 112.349 743.081 110.201 742.43 108.117C741.909 105.904 741.388 103.69 740.867 101.477C740.477 99.6536 740.021 97.7656 739.5 95.8125C738.979 93.7292 738.328 91.9062 737.547 90.3438C737.286 88.2604 736.701 86.3073 735.789 84.4844C735.008 82.5312 734.617 80.5781 734.617 78.625C733.966 76.5417 733.38 74.4583 732.859 72.375C732.469 70.2917 731.948 68.2083 731.297 66.125C731.036 65.0833 730.711 64.1068 730.32 63.1953C729.93 62.2839 729.604 61.3724 729.344 60.4609C728.953 59.2891 728.628 58.0521 728.367 56.75C728.107 55.4479 727.846 54.1458 727.586 52.8438C727.195 51.6719 726.805 50.5651 726.414 49.5234C726.023 48.3516 725.633 47.1797 725.242 46.0078C724.591 43.7943 723.94 41.6458 723.289 39.5625C722.768 37.349 722.182 35.1354 721.531 32.9219C720.88 30.4479 720.229 28.0391 719.578 25.6953C719.057 23.2214 718.081 20.8776 716.648 18.6641C716.258 18.013 715.932 17.2969 715.672 16.5156C715.542 15.6042 715.281 14.7578 714.891 13.9766C715.151 12.9349 715.216 11.763 715.086 10.4609C714.956 9.02865 715.151 7.92188 715.672 7.14062C716.974 7.14062 718.536 7.14062 720.359 7.14062C722.182 7.01042 723.549 7.07552 724.461 7.33594C724.982 7.20573 725.372 7.01042 725.633 6.75C726.023 6.48958 726.479 6.29427 727 6.16406C727.781 6.55469 728.562 6.75 729.344 6.75C730.516 6.75 731.427 6.48958 732.078 5.96875C733.51 6.61979 734.292 6.75 734.422 6.35938C734.552 5.96875 734.878 5.77344 735.398 5.77344C736.18 6.03385 736.766 6.61979 737.156 7.53125C737.547 8.3125 737.938 9.02865 738.328 9.67969C739.76 12.2839 740.802 14.888 741.453 17.4922C742.234 19.9661 743.016 22.6354 743.797 25.5C744.708 28.1042 745.555 30.7083 746.336 33.3125C747.117 35.7865 747.833 38.3255 748.484 40.9297C748.875 42.2318 749.201 43.5339 749.461 44.8359C749.721 46.138 749.982 47.4401 750.242 48.7422C750.633 50.1745 751.089 51.5417 751.609 52.8438C752.13 54.0156 752.651 55.3177 753.172 56.75C753.432 58.1823 753.693 59.6146 753.953 61.0469C754.214 62.349 754.539 63.7161 754.93 65.1484C755.19 66.1901 755.516 67.1667 755.906 68.0781C756.297 68.9896 756.622 69.9661 756.883 71.0078C757.143 72.0495 757.404 73.1562 757.664 74.3281C757.924 75.3698 758.185 76.4115 758.445 77.4531C759.096 80.0573 759.812 82.6615 760.594 85.2656C761.375 87.7396 762.091 90.2786 762.742 92.8828C763.393 92.4922 763.784 91.776 763.914 90.7344C764.044 89.6927 764.305 88.8464 764.695 88.1953C764.956 86.6328 765.346 84.9401 765.867 83.1172C766.518 81.2943 767.104 79.6016 767.625 78.0391C767.755 77.388 767.885 76.8021 768.016 76.2812C768.276 75.7604 768.536 75.1745 768.797 74.5234C769.188 73.7422 769.448 72.9609 769.578 72.1797C769.708 71.2682 769.904 70.3568 770.164 69.4453C770.685 67.6224 771.206 65.7995 771.727 63.9766C772.378 62.1536 772.964 60.3307 773.484 58.5078C774.005 56.8151 774.461 55.0573 774.852 53.2344C775.242 51.4115 775.763 49.7188 776.414 48.1562C777.065 46.724 777.586 45.3568 777.977 44.0547C778.497 42.7526 778.953 41.3854 779.344 39.9531C779.734 38.5208 780.06 37.0885 780.32 35.6562C780.581 34.224 781.036 32.9219 781.688 31.75C781.948 31.099 782.208 30.3828 782.469 29.6016C782.859 28.6901 783.185 27.8438 783.445 27.0625C784.096 24.9792 784.682 22.8958 785.203 20.8125C785.724 18.7292 786.44 16.6458 787.352 14.5625C788.003 12.7396 788.784 10.9818 789.695 9.28906C790.607 7.59635 791.388 5.83854 792.039 4.01562C792.56 2.71354 793.016 1.86719 793.406 1.47656C793.797 1.08594 794.188 0.695312 794.578 0.304688ZM886.766 128.039C886.505 128.82 886.375 129.536 886.375 130.188C886.375 130.969 886.44 131.75 886.57 132.531C886.831 133.312 886.961 134.094 886.961 134.875C886.701 137.219 886.505 138.651 886.375 139.172C885.594 139.823 883.966 140.604 881.492 141.516C879.148 142.297 876.284 143.143 872.898 144.055C869.643 144.836 866.062 145.682 862.156 146.594C858.38 147.375 854.734 148.156 851.219 148.938C847.703 149.719 844.448 150.37 841.453 150.891C838.589 151.542 836.44 151.997 835.008 152.258C834.357 152.388 833.706 152.518 833.055 152.648C832.534 152.909 831.948 153.169 831.297 153.43C830.646 153.56 829.995 153.56 829.344 153.43C828.693 153.43 828.042 153.56 827.391 153.82C827 153.82 826.609 153.625 826.219 153.234C825.958 152.844 825.698 152.518 825.438 152.258C825.438 151.477 825.307 150.891 825.047 150.5C824.786 150.109 824.461 149.784 824.07 149.523C823.81 149.263 823.549 149.003 823.289 148.742C823.029 148.352 822.898 147.766 822.898 146.984C822.638 145.943 822.247 145.161 821.727 144.641C821.336 143.99 821.141 143.404 821.141 142.883C820.62 141.19 820.359 139.693 820.359 138.391C820.359 137.74 820.424 137.219 820.555 136.828C820.685 136.438 820.88 136.047 821.141 135.656C821.922 135.396 822.508 135.07 822.898 134.68C823.289 134.289 823.81 133.964 824.461 133.703C825.242 133.312 826.349 132.987 827.781 132.727C829.214 132.336 830.776 131.945 832.469 131.555C834.161 131.164 835.789 130.773 837.352 130.383C838.914 129.992 840.216 129.602 841.258 129.211C841.648 129.081 842.039 129.016 842.43 129.016C842.82 129.016 843.146 128.885 843.406 128.625C843.146 126.542 842.951 124.458 842.82 122.375C842.82 120.292 842.69 118.273 842.43 116.32C842.43 115.409 842.365 114.497 842.234 113.586C842.104 112.674 842.039 111.828 842.039 111.047L842.234 106.945C842.234 101.997 842.039 97.0495 841.648 92.1016C841.258 87.1536 841.062 82.2057 841.062 77.2578V70.6172C841.062 69.5755 840.997 68.599 840.867 67.6875C840.867 66.776 840.867 65.7995 840.867 64.7578C840.867 62.2839 840.867 59.9401 840.867 57.7266C840.997 55.3828 841.062 52.974 841.062 50.5V32.5312C838.198 31.8802 835.529 31.9453 833.055 32.7266C830.581 33.3776 828.042 33.8333 825.438 34.0938C824.526 33.1823 824.005 32.2057 823.875 31.1641C822.833 29.7318 822.117 28.8203 821.727 28.4297C821.336 28.0391 820.88 26.9323 820.359 25.1094C819.448 23.2865 818.667 22.1797 818.016 21.7891C817.495 21.2682 817.234 20.487 817.234 19.4453C817.234 18.7943 817.365 18.3385 817.625 18.0781C818.016 17.8177 818.341 17.362 818.602 16.7109C819.773 16.1901 820.424 15.8646 820.555 15.7344C820.815 15.474 821.076 15.2786 821.336 15.1484C822.638 14.237 824.135 13.5859 825.828 13.1953C827.521 12.8047 829.148 12.349 830.711 11.8281C832.013 11.4375 833.25 10.9818 834.422 10.4609C835.594 9.9401 836.896 9.48438 838.328 9.09375C840.021 8.57292 841.714 8.05208 843.406 7.53125C845.099 7.01042 846.727 6.55469 848.289 6.16406C849.331 5.90365 850.307 5.83854 851.219 5.96875C852.26 5.96875 853.302 5.64323 854.344 4.99219C856.036 5.2526 857.794 5.2526 859.617 4.99219C861.57 4.60156 863.654 4.14583 865.867 3.625C868.081 3.10417 870.229 2.64844 872.312 2.25781C874.396 1.86719 875.958 1.54167 877 1.28125C877.651 1.54167 878.107 1.86719 878.367 2.25781C878.628 2.64844 879.018 2.90885 879.539 3.03906C879.669 3.42969 879.799 3.95052 879.93 4.60156C880.06 5.1224 880.32 5.51302 880.711 5.77344C880.711 7.20573 881.036 8.2474 881.688 8.89844C881.557 10.2005 881.753 11.6979 882.273 13.3906C882.924 14.9531 883.25 16.4505 883.25 17.8828C882.599 19.8359 881.492 21.0729 879.93 21.5938C878.497 22.1146 876.87 22.5703 875.047 22.9609C873.354 23.3516 871.661 23.7422 869.969 24.1328C868.276 24.3932 866.909 24.7188 865.867 25.1094C865.867 26.9323 865.867 28.8203 865.867 30.7734C865.997 32.7266 866.062 34.6797 866.062 36.6328C866.062 38.4557 865.997 40.2786 865.867 42.1016C865.867 43.9245 865.867 45.7474 865.867 47.5703C865.867 50.3047 865.802 53.1042 865.672 55.9688C865.672 58.8333 865.672 61.6979 865.672 64.5625C865.672 68.599 865.737 72.6354 865.867 76.6719C865.997 80.7083 866.193 84.7448 866.453 88.7812C866.583 89.4323 866.648 90.4089 866.648 91.7109C866.648 96.9193 866.714 102.062 866.844 107.141C867.104 112.089 867.495 117.232 868.016 122.57C869.708 122.701 871.01 122.44 871.922 121.789C872.573 121.789 873.159 121.659 873.68 121.398C874.331 121.138 874.917 120.878 875.438 120.617C876.219 120.487 877.26 120.292 878.562 120.031C879.995 119.641 880.906 119.445 881.297 119.445C882.469 119.576 883.185 119.576 883.445 119.445C883.836 120.227 884.422 120.812 885.203 121.203C885.464 122.375 885.659 123.547 885.789 124.719C886.049 125.76 886.375 126.867 886.766 128.039ZM988.914 3.82031C990.346 3.82031 991.388 4.01562 992.039 4.40625C992.69 5.70833 993.081 6.88021 993.211 7.92188C993.471 8.83333 993.602 9.9401 993.602 11.2422C993.732 13.1953 993.732 14.6276 993.602 15.5391C993.602 16.3203 993.536 17.1667 993.406 18.0781C993.276 20.1615 993.211 22.1797 993.211 24.1328C993.211 25.9557 993.211 27.9089 993.211 29.9922C993.211 34.5495 993.276 39.1719 993.406 43.8594C993.536 48.5469 993.602 53.1693 993.602 57.7266C993.602 59.5495 993.536 61.3724 993.406 63.1953C993.406 64.888 993.406 66.6458 993.406 68.4688C993.406 68.8594 993.406 69.3151 993.406 69.8359C993.536 70.2266 993.602 70.6172 993.602 71.0078C993.602 72.1797 993.536 73.3516 993.406 74.5234C993.406 75.5651 993.406 76.6068 993.406 77.6484C993.406 78.1693 993.406 78.625 993.406 79.0156C993.406 79.4062 993.471 79.9271 993.602 80.5781C993.341 81.6198 993.211 82.3359 993.211 82.7266C993.211 84.8099 993.276 86.9583 993.406 89.1719C993.536 91.2552 993.602 93.3385 993.602 95.4219C993.602 97.375 993.602 99.263 993.602 101.086C993.732 102.909 993.797 104.797 993.797 106.75C993.797 107.792 993.732 108.898 993.602 110.07C993.602 111.242 993.602 112.414 993.602 113.586C993.602 116.32 993.667 119.12 993.797 121.984C993.927 124.719 994.057 127.453 994.188 130.188C994.188 132.01 994.188 133.833 994.188 135.656C994.188 137.349 994.318 139.107 994.578 140.93C994.578 143.013 994.448 144.576 994.188 145.617C994.057 146.529 993.862 147.44 993.602 148.352C992.56 148.612 991.844 148.742 991.453 148.742C991.193 148.612 990.867 148.547 990.477 148.547C988.654 149.068 987.482 149.589 986.961 150.109C986.44 150.5 985.854 150.956 985.203 151.477C984.682 151.477 984.031 151.477 983.25 151.477C982.599 151.607 982.078 151.867 981.688 152.258C981.036 151.997 980.516 151.932 980.125 152.062C979.734 152.193 979.344 152.258 978.953 152.258C977.13 152.388 975.893 152.583 975.242 152.844C974.591 153.234 973.68 153.43 972.508 153.43C971.466 151.737 970.685 150.435 970.164 149.523C969.643 148.482 968.797 148.026 967.625 148.156C965.932 145.552 964.695 142.818 963.914 139.953C963.263 137.089 962.091 134.484 960.398 132.141C960.268 131.099 960.073 130.448 959.812 130.188C959.552 129.927 959.292 129.406 959.031 128.625C958.51 127.583 958.055 126.477 957.664 125.305C957.273 124.133 956.753 123.026 956.102 121.984C955.06 119.771 954.018 117.622 952.977 115.539C951.935 113.326 950.958 111.047 950.047 108.703C949.656 107.661 949.331 106.62 949.07 105.578C948.81 104.406 948.484 103.299 948.094 102.258C947.833 101.737 947.508 101.216 947.117 100.695C946.857 100.174 946.596 99.7188 946.336 99.3281C945.555 97.8958 944.773 96.4635 943.992 95.0312C943.341 93.599 942.56 92.1667 941.648 90.7344C941.388 90.0833 940.997 89.4974 940.477 88.9766C940.086 88.3255 939.63 87.6745 939.109 87.0234C938.719 86.112 938.328 85.2005 937.938 84.2891C937.677 83.3776 937.352 82.4661 936.961 81.5547C936.701 80.7734 936.31 79.9922 935.789 79.2109C935.268 78.2995 934.878 77.4531 934.617 76.6719C934.357 76.0208 934.161 75.3698 934.031 74.7188C933.901 74.0677 933.51 73.4818 932.859 72.9609C931.948 74.5234 931.492 75.5651 931.492 76.0859C931.362 77.6484 931.232 78.9505 931.102 79.9922C931.102 80.9036 931.102 81.75 931.102 82.5312C931.102 83.4427 931.167 84.3542 931.297 85.2656C931.557 86.0469 931.688 86.8281 931.688 87.6094C931.948 90.7344 932.143 93.9245 932.273 97.1797C932.404 100.305 932.469 103.43 932.469 106.555C932.339 109.029 932.273 110.917 932.273 112.219C932.404 113.521 932.534 114.823 932.664 116.125C932.794 117.427 932.794 118.794 932.664 120.227C932.664 121.529 932.729 122.831 932.859 124.133C932.859 127.128 932.859 130.057 932.859 132.922C932.99 135.656 933.055 138.521 933.055 141.516V146.203C933.055 147.635 932.859 148.938 932.469 150.109C930.516 150.109 929.214 150.044 928.562 149.914C928.042 149.784 927.456 149.589 926.805 149.328C926.023 149.458 925.372 149.784 924.852 150.305C924.461 150.695 923.94 151.086 923.289 151.477C921.857 151.346 921.076 151.346 920.945 151.477C920.815 151.737 920.555 151.997 920.164 152.258C919.773 152.388 919.383 152.388 918.992 152.258C918.732 152.128 918.406 152.062 918.016 152.062C916.974 151.802 916.128 151.672 915.477 151.672C914.695 151.932 913.914 152.193 913.133 152.453C912.482 152.714 911.766 152.909 910.984 153.039C910.203 151.607 909.747 149.914 909.617 147.961C909.487 146.008 908.966 144.315 908.055 142.883C908.315 142.362 908.445 142.036 908.445 141.906C908.576 141.776 908.641 141.385 908.641 140.734C908.641 137.74 908.576 134.745 908.445 131.75C908.315 128.755 908.25 125.76 908.25 122.766C908.25 120.292 908.055 117.883 907.664 115.539C907.404 113.195 907.273 110.786 907.273 108.312C907.273 107.531 907.339 106.75 907.469 105.969C907.599 105.188 907.664 104.341 907.664 103.43C907.664 103.039 907.599 102.648 907.469 102.258C907.469 101.867 907.469 101.542 907.469 101.281C907.208 98.9375 907.013 96.5286 906.883 94.0547C906.883 91.5807 906.883 89.1068 906.883 86.6328C906.753 85.2005 906.622 83.7031 906.492 82.1406C906.492 80.5781 906.492 78.9505 906.492 77.2578C906.492 76.6068 906.557 75.8906 906.688 75.1094C906.818 74.3281 906.883 73.5469 906.883 72.7656V64.5625C906.622 63 906.492 61.9583 906.492 61.4375C906.622 60.9167 906.688 60.3958 906.688 59.875C906.688 58.7031 906.557 57.5964 906.297 56.5547C906.167 55.3828 906.102 54.1458 906.102 52.8438C906.102 51.9323 906.167 51.0859 906.297 50.3047C906.557 49.3932 906.688 48.4818 906.688 47.5703C906.688 45.6172 906.557 43.7292 906.297 41.9062C906.167 40.0833 906.102 38.1953 906.102 36.2422V19.6406C906.102 18.7292 906.036 17.8177 905.906 16.9062C905.776 15.9948 905.711 15.0182 905.711 13.9766C906.492 12.1536 907.208 11.2422 907.859 11.2422C908.51 11.112 909.096 10.8516 909.617 10.4609C911.049 10.7214 912.286 10.5911 913.328 10.0703C915.021 10.2005 916.062 10.0052 916.453 9.48438C916.714 9.74479 917.039 9.875 917.43 9.875C917.951 9.74479 918.406 9.74479 918.797 9.875C919.188 9.61458 919.513 9.35417 919.773 9.09375C920.034 8.83333 920.424 8.57292 920.945 8.3125C922.378 7.53125 923.224 7.07552 923.484 6.94531C923.745 6.6849 924.07 6.42448 924.461 6.16406C925.112 6.16406 925.503 6.35938 925.633 6.75C925.893 7.14062 926.349 7.33594 927 7.33594C927.26 7.85677 927.586 8.3776 927.977 8.89844C928.367 9.41927 928.823 9.8099 929.344 10.0703C930.385 12.2839 931.622 14.1719 933.055 15.7344C934.227 19.1198 935.529 22.375 936.961 25.5C938.523 28.625 940.151 31.75 941.844 34.875C941.844 35.2656 941.909 35.7865 942.039 36.4375C942.169 36.9583 942.299 37.349 942.43 37.6094C943.081 39.0417 943.992 40.9297 945.164 43.2734C946.466 45.487 947.573 47.3099 948.484 48.7422C948.745 49.263 949.07 49.7188 949.461 50.1094C949.852 50.5 950.177 50.9557 950.438 51.4766C950.828 52.1276 951.154 52.8438 951.414 53.625C951.674 54.4062 952 55.1224 952.391 55.7734C953.042 57.3359 953.758 58.8984 954.539 60.4609C955.451 61.8932 956.362 63.3906 957.273 64.9531C957.534 65.7344 957.794 66.5156 958.055 67.2969C958.445 68.0781 958.836 68.8594 959.227 69.6406C960.268 71.9844 961.18 73.8073 961.961 75.1094C962.872 76.2812 963.523 77.5833 963.914 79.0156C964.826 80.0573 965.542 81.2292 966.062 82.5312C966.583 83.7031 967.365 84.6797 968.406 85.4609C968.536 84.8099 968.667 82.9219 968.797 79.7969C968.927 76.5417 968.992 73.026 968.992 69.25C968.992 65.474 968.992 61.8932 968.992 58.5078C968.992 55.1224 968.992 52.8438 968.992 51.6719C968.992 48.1562 968.927 44.7057 968.797 41.3203C968.667 37.8047 968.602 34.3542 968.602 30.9688C968.602 28.2344 968.602 25.5 968.602 22.7656C968.732 19.901 968.862 17.1016 968.992 14.3672C969.122 12.9349 969.122 11.6328 968.992 10.4609C968.992 9.15885 969.057 7.85677 969.188 6.55469C969.318 5.90365 969.578 5.2526 969.969 4.60156C970.359 3.95052 970.685 3.29948 970.945 2.64844C972.638 2.38802 973.94 2.71354 974.852 3.625C975.633 3.23438 976.544 3.03906 977.586 3.03906C978.758 3.03906 979.734 2.97396 980.516 2.84375C981.557 2.71354 982.143 2.64844 982.273 2.64844C982.404 2.51823 982.599 2.45312 982.859 2.45312C983.38 2.71354 983.836 2.90885 984.227 3.03906C984.747 3.16927 985.333 3.36458 985.984 3.625C987.156 3.23438 988.133 3.29948 988.914 3.82031Z" fill="black"/>
</svg>
